<?xml version="1.0" encoding="UTF-8" standalone="no"?><svg xmlns="http://www.w3.org/2000/svg" xmlns:xlink="http://www.w3.org/1999/xlink" contentStyleType="text/css" height="1177px" preserveAspectRatio="none" style="width:3306px;height:1177px;background:#FFFFFF;" version="1.1" viewBox="0 0 3306 1177" width="3306px" zoomAndPan="magnify"><defs/><g><ellipse cx="1646" cy="20" fill="#222222" rx="10" ry="10" style="stroke:#222222;stroke-width:1.0;"/><rect fill="#F1F1F1" height="35.0938" rx="12.5" ry="12.5" style="stroke:#181818;stroke-width:0.5;" width="182" x="1555" y="50"/><text fill="#000000" font-family="sans-serif" font-size="12" lengthAdjust="spacing" textLength="162" x="1565" y="72.457">L'utilisateur clique sur "Jouer"</text><rect fill="#F1F1F1" height="35.0938" rx="12.5" ry="12.5" style="stroke:#181818;stroke-width:0.5;" width="213" x="1539.5" y="154.0117"/><text fill="#000000" font-family="sans-serif" font-size="12" lengthAdjust="spacing" textLength="193" x="1549.5" y="176.4688">Redirige vers la page de connexion</text><ellipse cx="1646" cy="228.0586" fill="none" rx="11" ry="11" style="stroke:#222222;stroke-width:1.0;"/><ellipse cx="1646" cy="228.0586" fill="#222222" rx="6" ry="6" style="stroke:#111111;stroke-width:1.0;"/><polygon fill="#F1F1F1" points="1593.5,105.0938,1698.5,105.0938,1710.5,117.0938,1698.5,129.0938,1593.5,129.0938,1581.5,117.0938,1593.5,105.0938" style="stroke:#181818;stroke-width:0.5;"/><text fill="#000000" font-family="sans-serif" font-size="11" lengthAdjust="spacing" textLength="19" x="1650" y="140.5127">Non</text><text fill="#000000" font-family="sans-serif" font-size="11" lengthAdjust="spacing" textLength="105" x="1593.5" y="121.5947">identifiants corrects ?</text><text fill="#000000" font-family="sans-serif" font-size="11" lengthAdjust="spacing" textLength="16" x="1710.5" y="114.6768">Oui</text><polygon fill="#F1F1F1" points="1562.5,281.0586,1729.5,281.0586,1741.5,293.0586,1729.5,305.0586,1562.5,305.0586,1550.5,293.0586,1562.5,281.0586" style="stroke:#181818;stroke-width:0.5;"/><text fill="#000000" font-family="sans-serif" font-size="11" lengthAdjust="spacing" textLength="167" x="1562.5" y="297.5596">L'utilisateur a un gobelin enregistré</text><text fill="#000000" font-family="sans-serif" font-size="11" lengthAdjust="spacing" textLength="16" x="1534.5" y="290.6416">Oui</text><text fill="#000000" font-family="sans-serif" font-size="11" lengthAdjust="spacing" textLength="19" x="1741.5" y="290.6416">Non</text><rect fill="#F1F1F1" height="35.0938" rx="12.5" ry="12.5" style="stroke:#181818;stroke-width:0.5;" width="506" x="1191" y="315.0586"/><text fill="#000000" font-family="sans-serif" font-size="12" lengthAdjust="spacing" textLength="486" x="1201" y="337.5156">Le système liste ses gobelins, avec la possibilité d’en créer un nouveau via un lien dédié</text><rect fill="#F1F1F1" height="35.0938" rx="12.5" ry="12.5" style="stroke:#181818;stroke-width:0.5;" width="262" x="1717" y="315.0586"/><text fill="#000000" font-family="sans-serif" font-size="12" lengthAdjust="spacing" textLength="242" x="1727" y="337.5156">Redirige vers la page de création de gobelin</text><polygon fill="#F1F1F1" points="1646,356.1523,1658,368.1523,1646,380.1523,1634,368.1523,1646,356.1523" style="stroke:#181818;stroke-width:0.5;"/><rect fill="#F1F1F1" height="35.0938" rx="12.5" ry="12.5" style="stroke:#181818;stroke-width:0.5;" width="183" x="1554.5" y="400.1523"/><text fill="#000000" font-family="sans-serif" font-size="12" lengthAdjust="spacing" textLength="163" x="1564.5" y="422.6094">L'utilisateur choisit un gobelin</text><rect fill="#F1F1F1" height="35.0938" rx="12.5" ry="12.5" style="stroke:#181818;stroke-width:0.5;" width="304" x="1494" y="455.2461"/><text fill="#000000" font-family="sans-serif" font-size="12" lengthAdjust="spacing" textLength="284" x="1504" y="477.7031">Le système affiche l'interface d'utilisation du gobelin</text><rect fill="#F1F1F1" height="35.0938" rx="12.5" ry="12.5" style="stroke:#181818;stroke-width:0.5;" width="251" x="1520.5" y="510.3398"/><text fill="#000000" font-family="sans-serif" font-size="12" lengthAdjust="spacing" textLength="231" x="1530.5" y="532.7969">L'utilisateur clique sur "Choisir une action"</text><polygon fill="#F1F1F1" points="367.25,565.4336,768.25,565.4336,780.25,577.4336,768.25,589.4336,367.25,589.4336,355.25,577.4336,367.25,565.4336" style="stroke:#181818;stroke-width:0.5;"/><text fill="#000000" font-family="sans-serif" font-size="11" lengthAdjust="spacing" textLength="173" x="571.75" y="600.8525">L'utilisateur clique sur "Se déplacer"</text><text fill="#000000" font-family="sans-serif" font-size="11" lengthAdjust="spacing" textLength="401" x="367.25" y="581.9346">Le système affiche un menu déroulant avec toutes les actions possibles du gobelin</text><rect fill="#90EE90" height="289.4316" style="stroke:#000000;stroke-width:1.5;" width="1011" x="11" y="623.2695"/><path d="M177,623.2695 L177,633.8789 L167,643.8789 L11,643.8789 " fill="none" style="stroke:#000000;stroke-width:1.5;"/><text fill="#000000" font-family="sans-serif" font-size="14" lengthAdjust="spacing" textLength="156" x="14" y="638.8027">Utilisation action basique</text><rect fill="#F1F1F1" height="35.0938" rx="12.5" ry="12.5" style="stroke:#181818;stroke-width:0.5;" width="352" x="391.75" y="660.8789"/><text fill="#000000" font-family="sans-serif" font-size="12" lengthAdjust="spacing" textLength="332" x="401.75" y="683.3359">Le système affiche la vue dédiée au déplacement du gobelin</text><rect fill="#F1F1F1" height="35.0938" rx="12.5" ry="12.5" style="stroke:#181818;stroke-width:0.5;" width="288" x="423.75" y="730.9727"/><text fill="#000000" font-family="sans-serif" font-size="12" lengthAdjust="spacing" textLength="268" x="433.75" y="753.4297">L'utilisateur choisit de se déplacer à gauche (y-1)</text><polygon fill="#F1F1F1" points="463.25,801.0664,672.25,801.0664,684.25,813.0664,672.25,825.0664,463.25,825.0664,451.25,813.0664,463.25,801.0664" style="stroke:#181818;stroke-width:0.5;"/><text fill="#000000" font-family="sans-serif" font-size="11" lengthAdjust="spacing" textLength="209" x="463.25" y="817.5674">Le système vérifie qu'il n'y a pas d'obstacle</text><text fill="#000000" font-family="sans-serif" font-size="11" lengthAdjust="spacing" textLength="105" x="346.25" y="810.6494">Déplacement possible</text><text fill="#000000" font-family="sans-serif" font-size="11" lengthAdjust="spacing" textLength="115" x="684.25" y="810.6494">Déplacement impossible</text><rect fill="#F1F1F1" height="35.0938" rx="12.5" ry="12.5" style="stroke:#181818;stroke-width:0.5;" width="586" x="23" y="835.0664"/><text fill="#000000" font-family="sans-serif" font-size="12" lengthAdjust="spacing" textLength="566" x="33" y="857.5234">Le système déplace le gobelin dans la direction souhaitée et met à jour les coordonnées de l'utilisateur</text><rect fill="#F1F1F1" height="35.0938" rx="12.5" ry="12.5" style="stroke:#181818;stroke-width:0.5;" width="381" x="629" y="835.0664"/><text fill="#000000" font-family="sans-serif" font-size="12" lengthAdjust="spacing" textLength="361" x="639" y="857.5234">Le système ne déplace pas le gobelin dans la direction souhaitée</text><polygon fill="#F1F1F1" points="567.75,876.1602,579.75,888.1602,567.75,900.1602,555.75,888.1602,567.75,876.1602" style="stroke:#181818;stroke-width:0.5;"/><polygon fill="#F1F1F1" points="1256.5,565.4336,1483.5,565.4336,1495.5,577.4336,1483.5,589.4336,1256.5,589.4336,1244.5,577.4336,1256.5,565.4336" style="stroke:#181818;stroke-width:0.5;"/><text fill="#000000" font-family="sans-serif" font-size="11" lengthAdjust="spacing" textLength="227" x="1256.5" y="581.9346">L'utilisateur clique sur l'action "Décaler sa DLA"</text><rect fill="#D0F0C0" height="232.8906" style="stroke:#000000;stroke-width:1.5;" width="676" x="1032" y="609.4336"/><path d="M1184,609.4336 L1184,620.043 L1174,630.043 L1032,630.043 " fill="none" style="stroke:#000000;stroke-width:1.5;"/><text fill="#000000" font-family="sans-serif" font-size="14" lengthAdjust="spacing" textLength="142" x="1035" y="624.9668">Action Décaler sa DLA</text><rect fill="#F1F1F1" height="35.0938" rx="12.5" ry="12.5" style="stroke:#181818;stroke-width:0.5;" width="364" x="1188" y="647.043"/><text fill="#000000" font-family="sans-serif" font-size="12" lengthAdjust="spacing" textLength="344" x="1198" y="669.5">Le système affiche une interface pour choisir une nouvelle DLA</text><rect fill="#F1F1F1" height="35.0938" rx="12.5" ry="12.5" style="stroke:#181818;stroke-width:0.5;" width="258" x="1241" y="717.1367"/><text fill="#000000" font-family="sans-serif" font-size="12" lengthAdjust="spacing" textLength="238" x="1251" y="739.5938">L'utilisateur sélectionne une nouvelle heure</text><rect fill="#F1F1F1" height="35.0938" rx="12.5" ry="12.5" style="stroke:#181818;stroke-width:0.5;" width="656" x="1042" y="787.2305"/><text fill="#000000" font-family="sans-serif" font-size="12" lengthAdjust="spacing" textLength="636" x="1052" y="809.6875">Le système modifie la DLA du gobelin selon le choix de l'utilisateur et affiche un message confirmant le changement</text><polygon fill="#F1F1F1" points="1841.5,565.4336,2094.5,565.4336,2106.5,577.4336,2094.5,589.4336,1841.5,589.4336,1829.5,577.4336,1841.5,565.4336" style="stroke:#181818;stroke-width:0.5;"/><text fill="#000000" font-family="sans-serif" font-size="11" lengthAdjust="spacing" textLength="253" x="1841.5" y="581.9346">L'utilisateur clique sur l'action "Abaisser sa défense"</text><text fill="#000000" font-family="sans-serif" font-size="11" lengthAdjust="spacing" textLength="237" x="2106.5" y="575.0166">L'utilisateur clique sur la technique "Boule de feu"</text><rect fill="#D0F0C0" height="232.8906" style="stroke:#000000;stroke-width:1.5;" width="480" x="1728" y="609.4336"/><path d="M1910,609.4336 L1910,620.043 L1900,630.043 L1728,630.043 " fill="none" style="stroke:#000000;stroke-width:1.5;"/><text fill="#000000" font-family="sans-serif" font-size="14" lengthAdjust="spacing" textLength="172" x="1731" y="624.9668">Action Abaisser sa défense</text><rect fill="#F1F1F1" height="35.0938" rx="12.5" ry="12.5" style="stroke:#181818;stroke-width:0.5;" width="340" x="1798" y="647.043"/><text fill="#000000" font-family="sans-serif" font-size="12" lengthAdjust="spacing" textLength="320" x="1808" y="669.5">Le système affiche un message exigeant une confirmation</text><rect fill="#F1F1F1" height="35.0938" rx="12.5" ry="12.5" style="stroke:#181818;stroke-width:0.5;" width="134" x="1901" y="717.1367"/><text fill="#000000" font-family="sans-serif" font-size="12" lengthAdjust="spacing" textLength="114" x="1911" y="739.5938">L'utilisateur confirme</text><rect fill="#F1F1F1" height="35.0938" rx="12.5" ry="12.5" style="stroke:#181818;stroke-width:0.5;" width="460" x="1738" y="787.2305"/><text fill="#000000" font-family="sans-serif" font-size="12" lengthAdjust="spacing" textLength="440" x="1748" y="809.6875">Le système applique le malus pour abaisser les stats défensives du gobelin à 0</text><rect fill="#FFCCCC" height="444.4434" style="stroke:#000000;stroke-width:1.5;" width="1067" x="2228" y="604.8926"/><path d="M2364,604.8926 L2364,615.502 L2354,625.502 L2228,625.502 " fill="none" style="stroke:#000000;stroke-width:1.5;"/><text fill="#000000" font-family="sans-serif" font-size="14" lengthAdjust="spacing" textLength="126" x="2231" y="620.4258">Utilisation technique</text><rect fill="#F1F1F1" height="35.0938" rx="12.5" ry="12.5" style="stroke:#181818;stroke-width:0.5;" width="280" x="2683.75" y="691.4199"/><text fill="#000000" font-family="sans-serif" font-size="12" lengthAdjust="spacing" textLength="260" x="2693.75" y="713.877">Le système affiche la vue de ciblage d'une cible</text><rect fill="#F1F1F1" height="35.0938" rx="12.5" ry="12.5" style="stroke:#181818;stroke-width:0.5;" width="439" x="2604.25" y="761.5137"/><text fill="#000000" font-family="sans-serif" font-size="12" lengthAdjust="spacing" textLength="419" x="2614.25" y="783.9707">L'utilisateur sélectionne la cible via un menu listant toutes les cibles à portée</text><polygon fill="#F1F1F1" points="2769.25,831.6074,2878.25,831.6074,2890.25,843.6074,2878.25,855.6074,2769.25,855.6074,2757.25,843.6074,2769.25,831.6074" style="stroke:#181818;stroke-width:0.5;"/><text fill="#000000" font-family="sans-serif" font-size="11" lengthAdjust="spacing" textLength="109" x="2769.25" y="848.1084">Test de la compétence</text><text fill="#000000" font-family="sans-serif" font-size="11" lengthAdjust="spacing" textLength="16" x="2741.25" y="841.1904">Oui</text><text fill="#000000" font-family="sans-serif" font-size="11" lengthAdjust="spacing" textLength="19" x="2890.25" y="841.1904">Non</text><rect fill="#F1F1F1" height="35.0938" rx="12.5" ry="12.5" style="stroke:#181818;stroke-width:0.5;" width="453" x="2340.5" y="865.6074"/><text fill="#000000" font-family="sans-serif" font-size="12" lengthAdjust="spacing" textLength="433" x="2350.5" y="888.0645">Le système calcule les dégâts liés à la technique et aux statistiques du lanceur</text><rect fill="#F1F1F1" height="35.0938" rx="12.5" ry="12.5" style="stroke:#181818;stroke-width:0.5;" width="618" x="2258" y="928.2422"/><text fill="#000000" font-family="sans-serif" font-size="12" lengthAdjust="spacing" textLength="598" x="2268" y="950.6992">Le système applique les dégâts de la technique à la cible, en les réduisant selon ses statistiques défensives</text><rect fill="#F1F1F1" height="35.0938" rx="12.5" ry="12.5" style="stroke:#181818;stroke-width:0.5;" width="369" x="2896" y="865.6074"/><text fill="#000000" font-family="sans-serif" font-size="12" lengthAdjust="spacing" textLength="349" x="2906" y="888.0645">Le système affiche un message indiquant que l'action a échoué</text><polygon fill="#F1F1F1" points="2823.75,969.3359,2835.75,981.3359,2823.75,993.3359,2811.75,981.3359,2823.75,969.3359" style="stroke:#181818;stroke-width:0.5;"/><polygon fill="#F1F1F1" points="2660.25,642.502,2987.25,642.502,2999.25,654.502,2987.25,666.502,2660.25,666.502,2648.25,654.502,2660.25,642.502" style="stroke:#181818;stroke-width:0.5;"/><text fill="#000000" font-family="sans-serif" font-size="11" lengthAdjust="spacing" textLength="16" x="2827.75" y="677.9209">Oui</text><text fill="#000000" font-family="sans-serif" font-size="11" lengthAdjust="spacing" textLength="327" x="2660.25" y="659.0029">Le système vérifie que l'utilisateur a suffisamment de points d'action</text><text fill="#000000" font-family="sans-serif" font-size="11" lengthAdjust="spacing" textLength="19" x="2999.25" y="652.085">Non</text><polygon fill="#F1F1F1" points="2823.75,1013.3359,2835.75,1025.3359,2823.75,1037.3359,2811.75,1025.3359,2823.75,1013.3359" style="stroke:#181818;stroke-width:0.5;"/><rect fill="#F1F1F1" height="35.0938" rx="12.5" ry="12.5" style="stroke:#181818;stroke-width:0.5;" width="391" x="1450.5" y="1089.3359"/><text fill="#000000" font-family="sans-serif" font-size="12" lengthAdjust="spacing" textLength="371" x="1460.5" y="1111.793">Le système affiche la vue avec les données mises à jour du gobelin</text><ellipse cx="1646" cy="1155.4297" fill="none" rx="11" ry="11" style="stroke:#222222;stroke-width:1.0;"/><ellipse cx="1646" cy="1155.4297" fill="#222222" rx="6" ry="6" style="stroke:#111111;stroke-width:1.0;"/><line style="stroke:#181818;stroke-width:1.0;" x1="1646" x2="1646" y1="30" y2="50"/><polygon fill="#181818" points="1642,40,1646,50,1650,40,1646,44" style="stroke:#181818;stroke-width:1.0;"/><line style="stroke:#181818;stroke-width:1.0;" x1="1646" x2="1646" y1="189.1055" y2="217.0586"/><polygon fill="#181818" points="1642,207.0586,1646,217.0586,1650,207.0586,1646,211.0586" style="stroke:#181818;stroke-width:1.0;"/><line style="stroke:#181818;stroke-width:1.0;" x1="1646" x2="1646" y1="129.0938" y2="154.0117"/><polygon fill="#181818" points="1642,144.0117,1646,154.0117,1650,144.0117,1646,148.0117" style="stroke:#181818;stroke-width:1.0;"/><line style="stroke:#181818;stroke-width:1.0;" x1="1710.5" x2="1762.5" y1="117.0938" y2="117.0938"/><polygon fill="#181818" points="1758.5,187.0586,1762.5,197.0586,1766.5,187.0586,1762.5,191.0586" style="stroke:#181818;stroke-width:1.0;"/><line style="stroke:#181818;stroke-width:1.0;" x1="1762.5" x2="1762.5" y1="117.0938" y2="261.0586"/><line style="stroke:#181818;stroke-width:1.0;" x1="1762.5" x2="1646" y1="261.0586" y2="261.0586"/><line style="stroke:#181818;stroke-width:1.0;" x1="1646" x2="1646" y1="261.0586" y2="281.0586"/><polygon fill="#181818" points="1642,271.0586,1646,281.0586,1650,271.0586,1646,275.0586" style="stroke:#181818;stroke-width:1.0;"/><line style="stroke:#181818;stroke-width:1.0;" x1="1646" x2="1646" y1="85.0938" y2="105.0938"/><polygon fill="#181818" points="1642,95.0938,1646,105.0938,1650,95.0938,1646,99.0938" style="stroke:#181818;stroke-width:1.0;"/><line style="stroke:#181818;stroke-width:1.0;" x1="1550.5" x2="1444" y1="293.0586" y2="293.0586"/><line style="stroke:#181818;stroke-width:1.0;" x1="1444" x2="1444" y1="293.0586" y2="315.0586"/><polygon fill="#181818" points="1440,305.0586,1444,315.0586,1448,305.0586,1444,309.0586" style="stroke:#181818;stroke-width:1.0;"/><line style="stroke:#181818;stroke-width:1.0;" x1="1741.5" x2="1848" y1="293.0586" y2="293.0586"/><line style="stroke:#181818;stroke-width:1.0;" x1="1848" x2="1848" y1="293.0586" y2="315.0586"/><polygon fill="#181818" points="1844,305.0586,1848,315.0586,1852,305.0586,1848,309.0586" style="stroke:#181818;stroke-width:1.0;"/><line style="stroke:#181818;stroke-width:1.0;" x1="1444" x2="1444" y1="350.1523" y2="368.1523"/><line style="stroke:#181818;stroke-width:1.0;" x1="1444" x2="1634" y1="368.1523" y2="368.1523"/><polygon fill="#181818" points="1624,364.1523,1634,368.1523,1624,372.1523,1628,368.1523" style="stroke:#181818;stroke-width:1.0;"/><line style="stroke:#181818;stroke-width:1.0;" x1="1848" x2="1848" y1="350.1523" y2="368.1523"/><line style="stroke:#181818;stroke-width:1.0;" x1="1848" x2="1658" y1="368.1523" y2="368.1523"/><polygon fill="#181818" points="1668,364.1523,1658,368.1523,1668,372.1523,1664,368.1523" style="stroke:#181818;stroke-width:1.0;"/><line style="stroke:#181818;stroke-width:1.0;" x1="1646" x2="1646" y1="380.1523" y2="400.1523"/><polygon fill="#181818" points="1642,390.1523,1646,400.1523,1650,390.1523,1646,394.1523" style="stroke:#181818;stroke-width:1.0;"/><line style="stroke:#181818;stroke-width:1.0;" x1="1646" x2="1646" y1="435.2461" y2="455.2461"/><polygon fill="#181818" points="1642,445.2461,1646,455.2461,1650,445.2461,1646,449.2461" style="stroke:#181818;stroke-width:1.0;"/><line style="stroke:#181818;stroke-width:1.0;" x1="1646" x2="1646" y1="490.3398" y2="510.3398"/><polygon fill="#181818" points="1642,500.3398,1646,510.3398,1650,500.3398,1646,504.3398" style="stroke:#181818;stroke-width:1.0;"/><line style="stroke:#181818;stroke-width:1.0;" x1="567.75" x2="567.75" y1="695.9727" y2="730.9727"/><polygon fill="#181818" points="563.75,720.9727,567.75,730.9727,571.75,720.9727,567.75,724.9727" style="stroke:#181818;stroke-width:1.0;"/><line style="stroke:#181818;stroke-width:1.0;" x1="451.25" x2="316" y1="813.0664" y2="813.0664"/><line style="stroke:#181818;stroke-width:1.0;" x1="316" x2="316" y1="813.0664" y2="835.0664"/><polygon fill="#181818" points="312,825.0664,316,835.0664,320,825.0664,316,829.0664" style="stroke:#181818;stroke-width:1.0;"/><line style="stroke:#181818;stroke-width:1.0;" x1="684.25" x2="819.5" y1="813.0664" y2="813.0664"/><line style="stroke:#181818;stroke-width:1.0;" x1="819.5" x2="819.5" y1="813.0664" y2="835.0664"/><polygon fill="#181818" points="815.5,825.0664,819.5,835.0664,823.5,825.0664,819.5,829.0664" style="stroke:#181818;stroke-width:1.0;"/><line style="stroke:#181818;stroke-width:1.0;" x1="316" x2="316" y1="870.1602" y2="888.1602"/><line style="stroke:#181818;stroke-width:1.0;" x1="316" x2="555.75" y1="888.1602" y2="888.1602"/><polygon fill="#181818" points="545.75,884.1602,555.75,888.1602,545.75,892.1602,549.75,888.1602" style="stroke:#181818;stroke-width:1.0;"/><line style="stroke:#181818;stroke-width:1.0;" x1="819.5" x2="819.5" y1="870.1602" y2="888.1602"/><line style="stroke:#181818;stroke-width:1.0;" x1="819.5" x2="579.75" y1="888.1602" y2="888.1602"/><polygon fill="#181818" points="589.75,884.1602,579.75,888.1602,589.75,892.1602,585.75,888.1602" style="stroke:#181818;stroke-width:1.0;"/><line style="stroke:#181818;stroke-width:1.0;" x1="567.75" x2="567.75" y1="766.0664" y2="801.0664"/><polygon fill="#181818" points="563.75,791.0664,567.75,801.0664,571.75,791.0664,567.75,795.0664" style="stroke:#181818;stroke-width:1.0;"/><line style="stroke:#181818;stroke-width:1.0;" x1="1370" x2="1370" y1="682.1367" y2="717.1367"/><polygon fill="#181818" points="1366,707.1367,1370,717.1367,1374,707.1367,1370,711.1367" style="stroke:#181818;stroke-width:1.0;"/><line style="stroke:#181818;stroke-width:1.0;" x1="1370" x2="1370" y1="752.2305" y2="787.2305"/><polygon fill="#181818" points="1366,777.2305,1370,787.2305,1374,777.2305,1370,781.2305" style="stroke:#181818;stroke-width:1.0;"/><line style="stroke:#181818;stroke-width:1.0;" x1="1968" x2="1968" y1="682.1367" y2="717.1367"/><polygon fill="#181818" points="1964,707.1367,1968,717.1367,1972,707.1367,1968,711.1367" style="stroke:#181818;stroke-width:1.0;"/><line style="stroke:#181818;stroke-width:1.0;" x1="1968" x2="1968" y1="752.2305" y2="787.2305"/><polygon fill="#181818" points="1964,777.2305,1968,787.2305,1972,777.2305,1968,781.2305" style="stroke:#181818;stroke-width:1.0;"/><line style="stroke:#181818;stroke-width:1.0;" x1="2823.75" x2="2823.75" y1="726.5137" y2="761.5137"/><polygon fill="#181818" points="2819.75,751.5137,2823.75,761.5137,2827.75,751.5137,2823.75,755.5137" style="stroke:#181818;stroke-width:1.0;"/><line style="stroke:#181818;stroke-width:1.0;" x1="2567" x2="2567" y1="900.7012" y2="928.2422"/><polygon fill="#181818" points="2563,918.2422,2567,928.2422,2571,918.2422,2567,922.2422" style="stroke:#181818;stroke-width:1.0;"/><line style="stroke:#181818;stroke-width:1.0;" x1="2757.25" x2="2567" y1="843.6074" y2="843.6074"/><line style="stroke:#181818;stroke-width:1.0;" x1="2567" x2="2567" y1="843.6074" y2="865.6074"/><polygon fill="#181818" points="2563,855.6074,2567,865.6074,2571,855.6074,2567,859.6074" style="stroke:#181818;stroke-width:1.0;"/><line style="stroke:#181818;stroke-width:1.0;" x1="2890.25" x2="3080.5" y1="843.6074" y2="843.6074"/><line style="stroke:#181818;stroke-width:1.0;" x1="3080.5" x2="3080.5" y1="843.6074" y2="865.6074"/><polygon fill="#181818" points="3076.5,855.6074,3080.5,865.6074,3084.5,855.6074,3080.5,859.6074" style="stroke:#181818;stroke-width:1.0;"/><line style="stroke:#181818;stroke-width:1.0;" x1="2567" x2="2567" y1="963.3359" y2="981.3359"/><line style="stroke:#181818;stroke-width:1.0;" x1="2567" x2="2811.75" y1="981.3359" y2="981.3359"/><polygon fill="#181818" points="2801.75,977.3359,2811.75,981.3359,2801.75,985.3359,2805.75,981.3359" style="stroke:#181818;stroke-width:1.0;"/><line style="stroke:#181818;stroke-width:1.0;" x1="3080.5" x2="3080.5" y1="900.7012" y2="981.3359"/><line style="stroke:#181818;stroke-width:1.0;" x1="3080.5" x2="2835.75" y1="981.3359" y2="981.3359"/><polygon fill="#181818" points="2845.75,977.3359,2835.75,981.3359,2845.75,985.3359,2841.75,981.3359" style="stroke:#181818;stroke-width:1.0;"/><line style="stroke:#181818;stroke-width:1.0;" x1="2823.75" x2="2823.75" y1="796.6074" y2="831.6074"/><polygon fill="#181818" points="2819.75,821.6074,2823.75,831.6074,2827.75,821.6074,2823.75,825.6074" style="stroke:#181818;stroke-width:1.0;"/><line style="stroke:#181818;stroke-width:1.0;" x1="2823.75" x2="2823.75" y1="666.502" y2="691.4199"/><polygon fill="#181818" points="2819.75,681.4199,2823.75,691.4199,2827.75,681.4199,2823.75,685.4199" style="stroke:#181818;stroke-width:1.0;"/><line style="stroke:#181818;stroke-width:1.0;" x1="2999.25" x2="3279" y1="654.502" y2="654.502"/><polygon fill="#181818" points="3275,836.1074,3279,846.1074,3283,836.1074,3279,840.1074" style="stroke:#181818;stroke-width:1.0;"/><line style="stroke:#181818;stroke-width:1.0;" x1="3279" x2="3279" y1="654.502" y2="1025.3359"/><line style="stroke:#181818;stroke-width:1.0;" x1="3279" x2="2835.75" y1="1025.3359" y2="1025.3359"/><polygon fill="#181818" points="2845.75,1021.3359,2835.75,1025.3359,2845.75,1029.3359,2841.75,1025.3359" style="stroke:#181818;stroke-width:1.0;"/><line style="stroke:#181818;stroke-width:1.0;" x1="2823.75" x2="2823.75" y1="993.3359" y2="1013.3359"/><polygon fill="#181818" points="2819.75,1003.3359,2823.75,1013.3359,2827.75,1003.3359,2823.75,1007.3359" style="stroke:#181818;stroke-width:1.0;"/><line style="stroke:#181818;stroke-width:1.0;" x1="567.75" x2="567.75" y1="589.4336" y2="660.8789"/><polygon fill="#181818" points="563.75,650.8789,567.75,660.8789,571.75,650.8789,567.75,654.8789" style="stroke:#181818;stroke-width:1.0;"/><line style="stroke:#181818;stroke-width:1.0;" x1="567.75" x2="567.75" y1="900.1602" y2="1069.3359"/><polygon fill="#181818" points="563.75,1059.3359,567.75,1069.3359,571.75,1059.3359,567.75,1063.3359" style="stroke:#181818;stroke-width:1.0;"/><line style="stroke:#181818;stroke-width:1.0;" x1="1370" x2="1370" y1="589.4336" y2="647.043"/><polygon fill="#181818" points="1366,637.043,1370,647.043,1374,637.043,1370,641.043" style="stroke:#181818;stroke-width:1.0;"/><line style="stroke:#181818;stroke-width:1.0;" x1="1370" x2="1370" y1="822.3242" y2="1069.3359"/><polygon fill="#181818" points="1366,1059.3359,1370,1069.3359,1374,1059.3359,1370,1063.3359" style="stroke:#181818;stroke-width:1.0;"/><line style="stroke:#181818;stroke-width:1.0;" x1="1968" x2="1968" y1="589.4336" y2="647.043"/><polygon fill="#181818" points="1964,637.043,1968,647.043,1972,637.043,1968,641.043" style="stroke:#181818;stroke-width:1.0;"/><line style="stroke:#181818;stroke-width:1.0;" x1="1968" x2="1968" y1="822.3242" y2="1069.3359"/><polygon fill="#181818" points="1964,1059.3359,1968,1069.3359,1972,1059.3359,1968,1063.3359" style="stroke:#181818;stroke-width:1.0;"/><line style="stroke:#181818;stroke-width:1.0;" x1="780.25" x2="1244.5" y1="577.4336" y2="577.4336"/><polygon fill="#181818" points="1234.5,573.4336,1244.5,577.4336,1234.5,581.4336,1238.5,577.4336" style="stroke:#181818;stroke-width:1.0;"/><line style="stroke:#181818;stroke-width:1.0;" x1="1495.5" x2="1829.5" y1="577.4336" y2="577.4336"/><polygon fill="#181818" points="1819.5,573.4336,1829.5,577.4336,1819.5,581.4336,1823.5,577.4336" style="stroke:#181818;stroke-width:1.0;"/><line style="stroke:#181818;stroke-width:1.0;" x1="1646" x2="1646" y1="545.4336" y2="550.4336"/><line style="stroke:#181818;stroke-width:1.0;" x1="1646" x2="567.75" y1="550.4336" y2="550.4336"/><line style="stroke:#181818;stroke-width:1.0;" x1="567.75" x2="567.75" y1="550.4336" y2="565.4336"/><polygon fill="#181818" points="563.75,555.4336,567.75,565.4336,571.75,555.4336,567.75,559.4336" style="stroke:#181818;stroke-width:1.0;"/><line style="stroke:#181818;stroke-width:1.0;" x1="2106.5" x2="2823.75" y1="577.4336" y2="577.4336"/><line style="stroke:#181818;stroke-width:1.0;" x1="2823.75" x2="2823.75" y1="577.4336" y2="642.502"/><polygon fill="#181818" points="2819.75,632.502,2823.75,642.502,2827.75,632.502,2823.75,636.502" style="stroke:#181818;stroke-width:1.0;"/><line style="stroke:#181818;stroke-width:1.0;" x1="2823.75" x2="2823.75" y1="1037.3359" y2="1069.3359"/><polygon fill="#181818" points="2819.75,1059.3359,2823.75,1069.3359,2827.75,1059.3359,2823.75,1063.3359" style="stroke:#181818;stroke-width:1.0;"/><line style="stroke:#181818;stroke-width:1.0;" x1="567.75" x2="2823.75" y1="1069.3359" y2="1069.3359"/><line style="stroke:#181818;stroke-width:1.0;" x1="1646" x2="1646" y1="1069.3359" y2="1089.3359"/><polygon fill="#181818" points="1642,1079.3359,1646,1089.3359,1650,1079.3359,1646,1083.3359" style="stroke:#181818;stroke-width:1.0;"/><line style="stroke:#181818;stroke-width:1.0;" x1="1646" x2="1646" y1="1124.4297" y2="1144.4297"/><polygon fill="#181818" points="1642,1134.4297,1646,1144.4297,1650,1134.4297,1646,1138.4297" style="stroke:#181818;stroke-width:1.0;"/><!--SRC=[dLPBRjj84Dth50rb8Gj806SRBGQE3GS8Z0H8PWxG8ejI1yrkcjqjs0W2v1gp6yngT0xUP4uohxh5doZPdWWGG57iglTUlQgYyxBsizcxkqNmIYidFOLQP5hT1n8Eb_EFDb0zNyrcgX0NAYVZLQ6ayKvajgufmyLlI-6tPCJ5vw2MinbfH-BYapNBcS3dtHVALQqs97PKEw6bg2H-v8G0nj23icOL7tJULZCokIfIiZ4cAO8H6xichOmWKzD6ELyt-r7kcEyEo1-TR_ufIU2unqzoxL7tMiWTPH66TKwjaS4tUv7_-_DFXCaGaMfEPMpOaGnYfs9chV1ltknprUnN_uSZ0aeFZlpZW67LiZoMVMkLKtv0TCNF3EZ8eb3P5hGModYg2vaXIHSZPWcZisVBUXrpCLD4pVXeM-DJ-O2e91DOWDe6ZV8d5RqD7jfgV5CGTr2Lx_HGsXgTX_ELE7QbGQYU9qqhE5D5Jg-qscpzXveGO_x7W6pAATRISQIv-1uFJapGgIR5Bb1RHTmFNLAmyoFj-a0dIvIpgNh8elbBR6JW91UFRzuk-_FTnR6qEqY9JY9n7nPA2xDu5EmQoBQmQ-TbfgcLxMO8ijLtsKMUy6rXeIvTn-JIH5_2ffHKSpPi9NkV17cKrpE9RnOakNYPjNME_iJVZjdgeGmzlTG78u2gV054Cq39f5-8T90uTX1V_KZTE9qO0t_fnS4gSq3Df4R5d1GtTrTJhzrStbvUNuhvLJfm_Fnp7kD-wdkpifrdKgl5gQB15h7EcimrUvse6ngVsk9lMfr6KDey-ab7e0CpmwaQJ72SaJnCgidb7pMwSpoyC9qBLPVSw_6eD9jOuDKlg7wrbigvf2BgNf1nzApq9myzhtz70AjbGmoV9MpP-6xTdEhkzD0vXMLL9NBGevGwk5HVsUBala7dOYCUuAhTQ0noWrsEv7jAF2ayPLiJRypVO-h6VL9Gc0ftUtkDptWsTeTRoPuOGCU6a400FPqiqrna8ojU-VcXefEb- -pCHGKm4k9INCHwy81uMGSWH7owNSLn4_5YvzeEDb2MrWv4hcmzdXQZAVmxkSY9uzgoQlQUJ4OdAKreOHPaN8cutvhzflaRgcXiavXtL3Fkgl0G3G6iV2jw0Sip6utGfsmsI980z-5JkiZvDQPXV1Zl6dc0Xj0bzRmxEB87q1lpU8XtBpClxI-54NmVE5boqA7PfS38tDh0xqdJQTrLuoZfS9vtRqVd_PJUuPXGkwDAvLBnumeRhd9-h_mF]--></g></svg>